<svg width="18" height="22" viewBox="0 0 18 22" fill="none" xmlns="http://www.w3.org/2000/svg">
<path fill-rule="evenodd" clip-rule="evenodd" d="M11 2C11 0.895431 10.1046 0 9 0C7.89543 0 7 0.895431 7 2H2.5C1.11929 2 0 3.11929 0 4.5C0 5.7501 0.917548 6.7859 2.11592 6.97068L2.11765 7L2.83389 19.1762C2.92717 20.7619 4.24029 22 5.82872 22H12.1713C13.7597 22 15.0728 20.7619 15.1661 19.1762L15.8824 7L15.8841 6.97068C17.0825 6.7859 18 5.7501 18 4.5C18 3.11929 16.8807 2 15.5 2H11ZM9 4H2.5C2.22386 4 2 4.22386 2 4.5C2 4.77614 2.22386 5 2.5 5H4.00346H13.9965H15.5C15.7761 5 16 4.77614 16 4.5C16 4.22386 15.7761 4 15.5 4H9ZM4.83044 19.0587L4.1211 7H13.8789L13.1696 19.0587C13.1385 19.5873 12.7008 20 12.1713 20H5.82872C5.29924 20 4.86153 19.5873 4.83044 19.0587ZM6 10C6 9.44771 6.44772 9 7 9C7.55228 9 8 9.44771 8 10V17C8 17.5523 7.55228 18 7 18C6.44772 18 6 17.5523 6 17V10ZM11 9C10.4477 9 10 9.44771 10 10V17C10 17.5523 10.4477 18 11 18C11.5523 18 12 17.5523 12 17V10C12 9.44771 11.5523 9 11 9Z" fill="white"/>
</svg>
