<svg width="27" height="12" viewBox="0 0 27 12" fill="none" xmlns="http://www.w3.org/2000/svg">
<path d="M2.48269 11.2384L6.35045 11.2384C7.41676 11.2383 8.28433 10.3708 8.28433 9.3045L8.28433 7.54645C8.28433 6.73861 8.94171 6.08147 9.74912 6.08135L17.3726 6.0846C18.1823 6.0846 18.8376 6.73982 18.8376 7.54966C18.8376 7.83284 18.8376 8.64596 18.8376 9.30772C18.8376 10.3693 19.695 11.2416 20.7725 11.2416L24.6332 11.2355C25.6995 11.2355 26.567 10.3679 26.567 9.30443C26.5705 8.51209 26.5716 8.25651 26.5731 7.90123C26.5731 4.05592 23.4448 0.927545 19.5996 0.927545L7.52252 0.924387C3.66816 0.924358 0.548837 4.04338 0.548865 7.89804L0.548837 9.30453C0.548836 10.3709 1.41635 11.2384 2.48269 11.2384ZM25.2778 9.30164C25.2778 9.65706 24.9887 9.94622 24.6322 9.94629L20.7715 9.95236C20.4152 9.95236 20.1269 9.66405 20.1269 9.30775L20.1269 8.6631L25.2806 8.6631L25.2778 9.30164ZM7.52231 2.21365L19.5995 2.21684C22.5745 2.21684 24.992 4.47081 25.2594 7.37383L20.1207 7.37384C20.0305 5.93338 18.8361 4.79531 17.3728 4.79531L9.74967 4.79212C9.7496 4.79212 9.74948 4.79212 9.74942 4.79212C8.28764 4.79209 7.09153 5.92828 7.00129 7.37059H1.86247C2.12708 4.47488 4.5268 2.21365 7.52231 2.21365ZM1.83804 9.30456V8.65988L6.99506 8.65991L6.99509 9.3045C6.99506 9.65996 6.70594 9.94914 6.35045 9.94914H2.48269C2.1272 9.94914 1.83801 9.65996 1.83804 9.30456Z" fill="white"/>
</svg>
